<?xml version="1.0" standalone="no"?>
<!DOCTYPE svg PUBLIC "-//W3C//DTD SVG 20010904//EN"
 "http://www.w3.org/TR/2001/REC-SVG-20010904/DTD/svg10.dtd">
<svg version="1.0" xmlns="http://www.w3.org/2000/svg"
 width="512.000000pt" height="512.000000pt" viewBox="0 0 512.000000 512.000000"
 preserveAspectRatio="xMidYMid meet">
<metadata>
Created by potrace 1.14, written by Peter Selinger 2001-2017
</metadata>
<g transform="translate(0.000000,512.000000) scale(0.100000,-0.100000)"
fill="#000000" stroke="none">
<path d="M3128 4048 c-46 -8 -59 -13 -128 -47 -120 -59 -211 -195 -224 -335
-18 -204 112 -391 313 -450 46 -13 155 -16 840 -16 475 0 800 -4 821 -10 93
-27 161 -120 155 -210 -5 -59 -17 -90 -54 -133 -54 -61 -87 -70 -256 -73 -188
-3 -224 -9 -299 -45 -104 -49 -191 -150 -223 -259 -19 -65 -26 -209 -12 -261
19 -75 115 -98 172 -40 30 29 31 34 34 131 3 110 18 153 70 202 50 47 86 56
243 57 80 1 161 4 180 7 159 26 296 145 342 299 18 62 20 162 3 226 -36 143
-156 268 -290 304 -16 5 -37 10 -45 12 -8 2 -377 5 -820 6 -799 3 -805 3 -845
24 -74 39 -115 105 -115 185 1 96 63 184 147 207 25 7 286 11 755 11 517 0
724 3 742 11 37 17 67 82 55 122 -10 38 -51 77 -82 78 -119 5 -1446 2 -1479
-3z"/>
<path d="M165 1908 c-47 -27 -98 -107 -131 -204 -35 -102 -41 -267 -14 -374
36 -140 109 -247 176 -259 21 -3 953 -6 2069 -5 1926 0 2031 1 2057 18 41 27
94 113 124 202 44 130 41 310 -7 439 -27 73 -92 169 -124 183 -37 17 -4121 17
-4150 0z"/>
</g>
</svg>
